%TF.GenerationSoftware,KiCad,Pcbnew,9.0.4*%
%TF.CreationDate,2025-08-27T15:07:23+05:30*%
%TF.ProjectId,KthDesign.kicad_pcb_3,4b746844-6573-4696-976e-2e6b69636164,rev?*%
%TF.SameCoordinates,Original*%
%TF.FileFunction,Copper,L1,Top*%
%TF.FilePolarity,Positive*%
%FSLAX46Y46*%
G04 Gerber Fmt 4.6, Leading zero omitted, Abs format (unit mm)*
G04 Created by KiCad (PCBNEW 9.0.4) date 2025-08-27 15:07:23*
%MOMM*%
%LPD*%
G01*
G04 APERTURE LIST*
%TA.AperFunction,ViaPad*%
%ADD10C,4.500000*%
%TD*%
%TA.AperFunction,ViaPad*%
%ADD11C,0.600000*%
%TD*%
G04 APERTURE END LIST*
D10*
%TO.N,GND*%
X130048000Y-77851000D03*
D11*
%TO.N,unconnected-(U1-PA14-Pad24)*%
X123808719Y-101728245D03*
%TO.N,unconnected-(U1-PB9-Pad31)*%
X125603000Y-77597000D03*
%TO.N,unconnected-(U1-PA11-Pad21)*%
X139701125Y-110077926D03*
%TO.N,unconnected-(U1-PB1-Pad15)*%
X155682628Y-101752236D03*
%TO.N,unconnected-(U1-PB6-Pad29)*%
X120523000Y-90170000D03*
%TO.N,unconnected-(U1-PC14-Pad2)*%
X139700086Y-71278078D03*
%TO.N,unconnected-(U1-NRST-Pad4)*%
X154051000Y-77597000D03*
%TO.N,unconnected-(U1-PA4-Pad10)*%
X159004000Y-90170000D03*
%TD*%
%TA.AperFunction,Conductor*%
%TO.N,GND*%
G36*
X141039717Y-71020560D02*
G01*
X141045101Y-71020913D01*
X141895932Y-71095351D01*
X141901300Y-71095939D01*
X142748106Y-71207423D01*
X142753386Y-71208235D01*
X143594530Y-71356552D01*
X143599783Y-71357596D01*
X144433684Y-71542468D01*
X144438878Y-71543739D01*
X145119401Y-71726085D01*
X145263880Y-71764798D01*
X145269069Y-71766310D01*
X146083624Y-72023138D01*
X146088738Y-72024875D01*
X146891319Y-72316990D01*
X146896329Y-72318938D01*
X147553760Y-72591256D01*
X147685409Y-72645787D01*
X147690360Y-72647966D01*
X148464417Y-73008913D01*
X148469253Y-73011298D01*
X149226857Y-73405681D01*
X149231558Y-73408260D01*
X149324754Y-73462067D01*
X149971222Y-73835306D01*
X149975847Y-73838112D01*
X150696171Y-74297008D01*
X150700670Y-74300014D01*
X151400297Y-74789900D01*
X151404659Y-74793099D01*
X151687229Y-75009922D01*
X152082235Y-75313021D01*
X152086439Y-75316395D01*
X152740727Y-75865408D01*
X152744794Y-75868975D01*
X153374465Y-76445962D01*
X153378373Y-76449703D01*
X153834666Y-76905996D01*
X153868151Y-76967319D01*
X153863167Y-77037011D01*
X153821295Y-77092944D01*
X153808986Y-77101064D01*
X153712985Y-77156491D01*
X153712982Y-77156493D01*
X153610493Y-77258982D01*
X153610488Y-77258988D01*
X153538017Y-77384511D01*
X153538016Y-77384515D01*
X153500500Y-77524525D01*
X153500500Y-77669475D01*
X153536246Y-77802878D01*
X153538017Y-77809488D01*
X153610488Y-77935011D01*
X153610490Y-77935013D01*
X153610491Y-77935015D01*
X153712985Y-78037509D01*
X153712986Y-78037510D01*
X153712988Y-78037511D01*
X153838511Y-78109982D01*
X153838512Y-78109982D01*
X153838515Y-78109984D01*
X153978525Y-78147500D01*
X153978528Y-78147500D01*
X154123472Y-78147500D01*
X154123475Y-78147500D01*
X154263485Y-78109984D01*
X154389015Y-78037509D01*
X154491509Y-77935015D01*
X154516933Y-77890978D01*
X154567500Y-77842764D01*
X154636107Y-77829540D01*
X154700971Y-77855508D01*
X154719306Y-77873269D01*
X154949413Y-78147500D01*
X155115605Y-78345560D01*
X155118983Y-78349770D01*
X155299217Y-78584656D01*
X155638900Y-79027340D01*
X155642099Y-79031702D01*
X156131985Y-79731329D01*
X156134991Y-79735828D01*
X156593887Y-80456152D01*
X156596693Y-80460777D01*
X157023727Y-81200420D01*
X157026329Y-81205163D01*
X157420693Y-81962729D01*
X157423086Y-81967582D01*
X157784033Y-82741639D01*
X157786212Y-82746590D01*
X158113051Y-83535646D01*
X158115012Y-83540689D01*
X158407124Y-84343261D01*
X158408863Y-84348383D01*
X158665687Y-85162925D01*
X158667201Y-85168119D01*
X158888252Y-85993091D01*
X158889538Y-85998346D01*
X159074397Y-86832189D01*
X159075452Y-86837496D01*
X159223758Y-87678580D01*
X159224581Y-87683927D01*
X159336059Y-88530694D01*
X159336648Y-88536072D01*
X159411085Y-89386891D01*
X159411439Y-89392290D01*
X159418478Y-89553522D01*
X159401736Y-89621356D01*
X159350978Y-89669370D01*
X159282319Y-89682321D01*
X159232596Y-89666317D01*
X159216488Y-89657017D01*
X159216489Y-89657017D01*
X159205006Y-89653940D01*
X159076475Y-89619500D01*
X158931525Y-89619500D01*
X158802993Y-89653940D01*
X158791511Y-89657017D01*
X158665988Y-89729488D01*
X158665982Y-89729493D01*
X158563493Y-89831982D01*
X158563488Y-89831988D01*
X158491017Y-89957511D01*
X158491016Y-89957515D01*
X158453500Y-90097525D01*
X158453500Y-90242475D01*
X158455050Y-90248258D01*
X158491017Y-90382488D01*
X158563488Y-90508011D01*
X158563490Y-90508013D01*
X158563491Y-90508015D01*
X158665985Y-90610509D01*
X158665986Y-90610510D01*
X158665988Y-90610511D01*
X158791511Y-90682982D01*
X158791512Y-90682982D01*
X158791515Y-90682984D01*
X158931525Y-90720500D01*
X158931528Y-90720500D01*
X159076472Y-90720500D01*
X159076475Y-90720500D01*
X159216485Y-90682984D01*
X159262812Y-90656236D01*
X159330711Y-90639764D01*
X159396738Y-90662616D01*
X159439929Y-90717537D01*
X159448812Y-90763624D01*
X159448812Y-91105035D01*
X159448694Y-91110444D01*
X159411439Y-91963710D01*
X159411085Y-91969108D01*
X159336648Y-92819927D01*
X159336059Y-92825305D01*
X159224581Y-93672072D01*
X159223758Y-93677419D01*
X159075452Y-94518503D01*
X159074397Y-94523810D01*
X158889538Y-95357653D01*
X158888252Y-95362908D01*
X158667201Y-96187880D01*
X158665687Y-96193074D01*
X158408863Y-97007616D01*
X158407124Y-97012738D01*
X158115012Y-97815310D01*
X158113051Y-97820353D01*
X157786212Y-98609409D01*
X157784033Y-98614360D01*
X157423086Y-99388417D01*
X157420693Y-99393270D01*
X157026329Y-100150836D01*
X157023727Y-100155579D01*
X156596693Y-100895222D01*
X156593887Y-100899847D01*
X156293537Y-101371303D01*
X156240915Y-101417267D01*
X156171796Y-101427485D01*
X156108126Y-101398712D01*
X156101275Y-101392359D01*
X156020645Y-101311729D01*
X156020639Y-101311724D01*
X155895116Y-101239253D01*
X155895117Y-101239253D01*
X155883634Y-101236176D01*
X155755103Y-101201736D01*
X155610153Y-101201736D01*
X155481621Y-101236176D01*
X155470139Y-101239253D01*
X155344616Y-101311724D01*
X155344610Y-101311729D01*
X155242121Y-101414218D01*
X155242116Y-101414224D01*
X155169645Y-101539747D01*
X155169644Y-101539751D01*
X155132128Y-101679761D01*
X155132128Y-101824711D01*
X155169644Y-101964721D01*
X155169645Y-101964724D01*
X155242116Y-102090247D01*
X155242118Y-102090249D01*
X155242119Y-102090251D01*
X155344613Y-102192745D01*
X155344614Y-102192746D01*
X155344616Y-102192747D01*
X155470139Y-102265218D01*
X155470141Y-102265219D01*
X155470143Y-102265220D01*
X155471241Y-102265514D01*
X155472064Y-102266015D01*
X155477647Y-102268328D01*
X155477286Y-102269198D01*
X155530902Y-102301878D01*
X155561432Y-102364724D01*
X155553138Y-102434100D01*
X155537525Y-102460775D01*
X155118991Y-103006219D01*
X155115604Y-103010439D01*
X154566591Y-103664727D01*
X154563024Y-103668794D01*
X153986037Y-104298465D01*
X153982296Y-104302373D01*
X153378373Y-104906296D01*
X153374465Y-104910037D01*
X152744794Y-105487024D01*
X152740727Y-105490591D01*
X152086439Y-106039604D01*
X152082219Y-106042991D01*
X151404659Y-106562900D01*
X151400297Y-106566099D01*
X150700670Y-107055985D01*
X150696171Y-107058991D01*
X149975847Y-107517887D01*
X149971222Y-107520693D01*
X149231579Y-107947727D01*
X149226836Y-107950329D01*
X148469270Y-108344693D01*
X148464417Y-108347086D01*
X147690360Y-108708033D01*
X147685409Y-108710212D01*
X146896353Y-109037051D01*
X146891310Y-109039012D01*
X146088738Y-109331124D01*
X146083616Y-109332863D01*
X145269074Y-109589687D01*
X145263880Y-109591201D01*
X144438908Y-109812252D01*
X144433653Y-109813538D01*
X143599810Y-109998397D01*
X143594503Y-109999452D01*
X142753419Y-110147758D01*
X142748072Y-110148581D01*
X141901305Y-110260059D01*
X141895927Y-110260648D01*
X141045108Y-110335085D01*
X141039710Y-110335439D01*
X140361081Y-110365069D01*
X140293247Y-110348327D01*
X140245232Y-110297570D01*
X140232281Y-110228911D01*
X140235896Y-110209099D01*
X140251625Y-110150401D01*
X140251625Y-110005451D01*
X140214109Y-109865441D01*
X140183400Y-109812252D01*
X140141636Y-109739914D01*
X140141631Y-109739908D01*
X140039142Y-109637419D01*
X140039136Y-109637414D01*
X139913613Y-109564943D01*
X139913614Y-109564943D01*
X139902131Y-109561866D01*
X139773600Y-109527426D01*
X139628650Y-109527426D01*
X139500118Y-109561866D01*
X139488636Y-109564943D01*
X139363113Y-109637414D01*
X139363107Y-109637419D01*
X139260618Y-109739908D01*
X139260613Y-109739914D01*
X139188142Y-109865437D01*
X139188141Y-109865441D01*
X139150625Y-110005451D01*
X139150625Y-110150401D01*
X139162800Y-110195839D01*
X139165100Y-110204422D01*
X139163437Y-110274272D01*
X139124274Y-110332134D01*
X139060046Y-110359638D01*
X139039916Y-110360397D01*
X138468289Y-110335439D01*
X138462891Y-110335085D01*
X137612072Y-110260648D01*
X137606694Y-110260059D01*
X136759927Y-110148581D01*
X136754580Y-110147758D01*
X135913496Y-109999452D01*
X135908189Y-109998397D01*
X135074346Y-109813538D01*
X135069091Y-109812252D01*
X134244119Y-109591201D01*
X134238925Y-109589687D01*
X133424383Y-109332863D01*
X133419261Y-109331124D01*
X132616689Y-109039012D01*
X132611646Y-109037051D01*
X131822590Y-108710212D01*
X131817639Y-108708033D01*
X131043582Y-108347086D01*
X131038729Y-108344693D01*
X130281163Y-107950329D01*
X130276420Y-107947727D01*
X129536777Y-107520693D01*
X129532152Y-107517887D01*
X128811828Y-107058991D01*
X128807329Y-107055985D01*
X128107702Y-106566099D01*
X128103340Y-106562900D01*
X127425780Y-106042991D01*
X127421560Y-106039604D01*
X126767272Y-105490591D01*
X126763205Y-105487024D01*
X126133534Y-104910037D01*
X126129626Y-104906296D01*
X125525703Y-104302373D01*
X125521962Y-104298465D01*
X124944975Y-103668794D01*
X124941408Y-103664727D01*
X124392395Y-103010439D01*
X124389021Y-103006235D01*
X123952364Y-102437173D01*
X123927171Y-102372005D01*
X123941209Y-102303560D01*
X123990023Y-102253571D01*
X124018649Y-102241913D01*
X124021204Y-102241229D01*
X124146734Y-102168754D01*
X124249228Y-102066260D01*
X124321703Y-101940730D01*
X124359219Y-101800720D01*
X124359219Y-101655770D01*
X124321703Y-101515760D01*
X124270737Y-101427485D01*
X124249230Y-101390233D01*
X124249225Y-101390227D01*
X124146736Y-101287738D01*
X124146730Y-101287733D01*
X124021207Y-101215262D01*
X124021208Y-101215262D01*
X124009725Y-101212185D01*
X123881194Y-101177745D01*
X123736244Y-101177745D01*
X123607712Y-101212185D01*
X123596230Y-101215262D01*
X123470707Y-101287733D01*
X123470700Y-101287739D01*
X123390906Y-101367532D01*
X123329583Y-101401017D01*
X123259891Y-101396031D01*
X123203958Y-101354159D01*
X123198645Y-101346475D01*
X122914112Y-100899847D01*
X122911306Y-100895222D01*
X122762266Y-100637078D01*
X122484260Y-100155558D01*
X122481681Y-100150857D01*
X122087298Y-99393253D01*
X122084913Y-99388417D01*
X121723966Y-98614360D01*
X121721787Y-98609409D01*
X121667256Y-98477760D01*
X121394938Y-97820329D01*
X121392987Y-97815310D01*
X121100875Y-97012738D01*
X121099136Y-97007616D01*
X120930250Y-96471979D01*
X120842310Y-96193069D01*
X120840798Y-96187880D01*
X120683112Y-95599388D01*
X120619739Y-95362878D01*
X120618468Y-95357684D01*
X120433596Y-94523783D01*
X120432552Y-94518530D01*
X120284235Y-93677386D01*
X120283423Y-93672106D01*
X120171939Y-92825300D01*
X120171351Y-92819927D01*
X120096914Y-91969108D01*
X120096560Y-91963710D01*
X120059306Y-91110444D01*
X120059188Y-91105035D01*
X120059188Y-90752654D01*
X120078873Y-90685615D01*
X120131677Y-90639860D01*
X120200835Y-90629916D01*
X120245189Y-90645268D01*
X120310509Y-90682981D01*
X120310510Y-90682982D01*
X120310512Y-90682982D01*
X120310515Y-90682984D01*
X120450525Y-90720500D01*
X120450528Y-90720500D01*
X120595472Y-90720500D01*
X120595475Y-90720500D01*
X120735485Y-90682984D01*
X120861015Y-90610509D01*
X120963509Y-90508015D01*
X121035984Y-90382485D01*
X121073500Y-90242475D01*
X121073500Y-90097525D01*
X121035984Y-89957515D01*
X120963509Y-89831985D01*
X120861015Y-89729491D01*
X120861013Y-89729490D01*
X120861011Y-89729488D01*
X120735488Y-89657017D01*
X120735489Y-89657017D01*
X120724006Y-89653940D01*
X120595475Y-89619500D01*
X120450525Y-89619500D01*
X120310515Y-89657016D01*
X120310514Y-89657016D01*
X120310512Y-89657017D01*
X120274910Y-89677572D01*
X120266352Y-89679648D01*
X120259453Y-89685118D01*
X120232925Y-89687757D01*
X120207010Y-89694044D01*
X120198687Y-89691163D01*
X120189927Y-89692035D01*
X120166182Y-89679912D01*
X120140983Y-89671191D01*
X120135539Y-89664269D01*
X120127698Y-89660266D01*
X120114274Y-89637227D01*
X120097793Y-89616269D01*
X120096031Y-89605916D01*
X120092523Y-89599896D01*
X120089029Y-89564775D01*
X120089521Y-89553522D01*
X120096560Y-89392279D01*
X120096914Y-89386891D01*
X120171351Y-88536072D01*
X120171940Y-88530694D01*
X120186004Y-88423865D01*
X120283424Y-87683886D01*
X120284234Y-87678620D01*
X120432554Y-86837460D01*
X120433594Y-86832225D01*
X120618471Y-85998304D01*
X120619736Y-85993132D01*
X120840802Y-85168102D01*
X120842312Y-85162925D01*
X121099143Y-84348361D01*
X121100875Y-84343261D01*
X121392996Y-83540664D01*
X121394932Y-83535686D01*
X121721791Y-82746578D01*
X121723966Y-82741639D01*
X121809912Y-82557325D01*
X122084921Y-81967563D01*
X122087288Y-81962764D01*
X122481691Y-81205123D01*
X122484249Y-81200460D01*
X122911319Y-80460754D01*
X122914098Y-80456174D01*
X123373028Y-79735797D01*
X123375993Y-79731359D01*
X123865907Y-79031691D01*
X123869099Y-79027340D01*
X124389038Y-78349741D01*
X124392395Y-78345560D01*
X124876926Y-77768119D01*
X124935097Y-77729417D01*
X125004958Y-77728309D01*
X125064328Y-77765146D01*
X125084740Y-77802878D01*
X125086908Y-77801981D01*
X125090017Y-77809488D01*
X125162488Y-77935011D01*
X125162490Y-77935013D01*
X125162491Y-77935015D01*
X125264985Y-78037509D01*
X125264986Y-78037510D01*
X125264988Y-78037511D01*
X125390511Y-78109982D01*
X125390512Y-78109982D01*
X125390515Y-78109984D01*
X125530525Y-78147500D01*
X125530528Y-78147500D01*
X125675472Y-78147500D01*
X125675475Y-78147500D01*
X125815485Y-78109984D01*
X125941015Y-78037509D01*
X126043509Y-77935015D01*
X126115984Y-77809485D01*
X126153500Y-77669475D01*
X126153500Y-77524525D01*
X126115984Y-77384515D01*
X126043509Y-77258985D01*
X125941015Y-77156491D01*
X125941013Y-77156490D01*
X125941011Y-77156488D01*
X125815488Y-77084017D01*
X125815483Y-77084015D01*
X125770428Y-77071942D01*
X125710768Y-77035576D01*
X125680240Y-76972729D01*
X125688535Y-76903354D01*
X125714839Y-76864490D01*
X126129649Y-76449680D01*
X126133511Y-76445983D01*
X126763221Y-75868960D01*
X126767272Y-75865408D01*
X127421560Y-75316395D01*
X127425741Y-75313038D01*
X128103350Y-74793091D01*
X128107702Y-74789900D01*
X128807359Y-74299993D01*
X128811797Y-74297028D01*
X129532174Y-73838098D01*
X129536754Y-73835319D01*
X130276460Y-73408249D01*
X130281123Y-73405691D01*
X131038764Y-73011288D01*
X131043563Y-73008921D01*
X131817639Y-72647966D01*
X131822578Y-72645791D01*
X132611686Y-72318932D01*
X132616664Y-72316996D01*
X133419269Y-72024872D01*
X133424361Y-72023143D01*
X134238942Y-71766306D01*
X134244102Y-71764802D01*
X135069132Y-71543736D01*
X135074304Y-71542471D01*
X135908225Y-71357594D01*
X135913460Y-71356554D01*
X136754620Y-71208234D01*
X136759886Y-71207424D01*
X137606704Y-71095938D01*
X137612062Y-71095352D01*
X138462901Y-71020913D01*
X138468279Y-71020560D01*
X139038866Y-70995648D01*
X139106700Y-71012390D01*
X139154715Y-71063148D01*
X139167666Y-71131806D01*
X139164049Y-71151623D01*
X139149586Y-71205603D01*
X139149586Y-71350553D01*
X139187102Y-71490563D01*
X139187103Y-71490566D01*
X139259574Y-71616089D01*
X139259576Y-71616091D01*
X139259577Y-71616093D01*
X139362071Y-71718587D01*
X139362072Y-71718588D01*
X139362074Y-71718589D01*
X139487597Y-71791060D01*
X139487598Y-71791060D01*
X139487601Y-71791062D01*
X139627611Y-71828578D01*
X139627614Y-71828578D01*
X139772558Y-71828578D01*
X139772561Y-71828578D01*
X139912571Y-71791062D01*
X140038101Y-71718587D01*
X140140595Y-71616093D01*
X140213070Y-71490563D01*
X140250586Y-71350553D01*
X140250586Y-71205603D01*
X140234845Y-71146857D01*
X140236508Y-71077010D01*
X140275670Y-71019147D01*
X140339899Y-70991643D01*
X140360019Y-70990884D01*
X141039717Y-71020560D01*
G37*
%TD.AperFunction*%
%TD*%
M02*
