%TF.GenerationSoftware,KiCad,Pcbnew,9.0.4*%
%TF.CreationDate,2025-08-27T15:07:23+05:30*%
%TF.ProjectId,KthDesign.kicad_pcb_3,4b746844-6573-4696-976e-2e6b69636164,rev?*%
%TF.SameCoordinates,Original*%
%TF.FileFunction,Copper,L2,Bot*%
%TF.FilePolarity,Positive*%
%FSLAX46Y46*%
G04 Gerber Fmt 4.6, Leading zero omitted, Abs format (unit mm)*
G04 Created by KiCad (PCBNEW 9.0.4) date 2025-08-27 15:07:23*
%MOMM*%
%LPD*%
G01*
G04 APERTURE LIST*
G04 Aperture macros list*
%AMRoundRect*
0 Rectangle with rounded corners*
0 $1 Rounding radius*
0 $2 $3 $4 $5 $6 $7 $8 $9 X,Y pos of 4 corners*
0 Add a 4 corners polygon primitive as box body*
4,1,4,$2,$3,$4,$5,$6,$7,$8,$9,$2,$3,0*
0 Add four circle primitives for the rounded corners*
1,1,$1+$1,$2,$3*
1,1,$1+$1,$4,$5*
1,1,$1+$1,$6,$7*
1,1,$1+$1,$8,$9*
0 Add four rect primitives between the rounded corners*
20,1,$1+$1,$2,$3,$4,$5,0*
20,1,$1+$1,$4,$5,$6,$7,0*
20,1,$1+$1,$6,$7,$8,$9,0*
20,1,$1+$1,$8,$9,$2,$3,0*%
G04 Aperture macros list end*
%TA.AperFunction,SMDPad,CuDef*%
%ADD10RoundRect,0.125000X-0.125000X0.625000X-0.125000X-0.625000X0.125000X-0.625000X0.125000X0.625000X0*%
%TD*%
%TA.AperFunction,SMDPad,CuDef*%
%ADD11RoundRect,0.125000X-0.625000X0.125000X-0.625000X-0.125000X0.625000X-0.125000X0.625000X0.125000X0*%
%TD*%
%TA.AperFunction,ViaPad*%
%ADD12C,4.500000*%
%TD*%
%TA.AperFunction,ViaPad*%
%ADD13C,0.600000*%
%TD*%
%TA.AperFunction,Conductor*%
%ADD14C,0.200000*%
%TD*%
G04 APERTURE END LIST*
D10*
%TO.P,U1,1,VDD*%
%TO.N,GND*%
X141707000Y-91726000D03*
%TO.P,U1,2,PC14*%
%TO.N,unconnected-(U1-PC14-Pad2)*%
X142507000Y-91726000D03*
%TO.P,U1,3,PC15*%
%TO.N,unconnected-(U1-PC15-Pad3)*%
X143307000Y-91726000D03*
%TO.P,U1,4,NRST*%
%TO.N,unconnected-(U1-NRST-Pad4)*%
X144107000Y-91726000D03*
%TO.P,U1,5,VDDA*%
%TO.N,GND*%
X144907000Y-91726000D03*
%TO.P,U1,6,PA0*%
%TO.N,unconnected-(U1-PA0-Pad6)*%
X145707000Y-91726000D03*
%TO.P,U1,7,PA1*%
%TO.N,unconnected-(U1-PA1-Pad7)*%
X146507000Y-91726000D03*
%TO.P,U1,8,PA2*%
%TO.N,unconnected-(U1-PA2-Pad8)*%
X147307000Y-91726000D03*
D11*
%TO.P,U1,9,PA3*%
%TO.N,unconnected-(U1-PA3-Pad9)*%
X148682000Y-93101000D03*
%TO.P,U1,10,PA4*%
%TO.N,unconnected-(U1-PA4-Pad10)*%
X148682000Y-93901000D03*
%TO.P,U1,11,PA5*%
%TO.N,unconnected-(U1-PA5-Pad11)*%
X148682000Y-94701000D03*
%TO.P,U1,12,PA6*%
%TO.N,unconnected-(U1-PA6-Pad12)*%
X148682000Y-95501000D03*
%TO.P,U1,13,PA7*%
%TO.N,unconnected-(U1-PA7-Pad13)*%
X148682000Y-96301000D03*
%TO.P,U1,14,PB0*%
%TO.N,unconnected-(U1-PB0-Pad14)*%
X148682000Y-97101000D03*
%TO.P,U1,15,PB1*%
%TO.N,unconnected-(U1-PB1-Pad15)*%
X148682000Y-97901000D03*
%TO.P,U1,16,VSS*%
%TO.N,GND*%
X148682000Y-98701000D03*
D10*
%TO.P,U1,17,VDD*%
X147307000Y-100076000D03*
%TO.P,U1,18,PA8*%
%TO.N,unconnected-(U1-PA8-Pad18)*%
X146507000Y-100076000D03*
%TO.P,U1,19,PA9*%
%TO.N,unconnected-(U1-PA9-Pad19)*%
X145707000Y-100076000D03*
%TO.P,U1,20,PA10*%
%TO.N,unconnected-(U1-PA10-Pad20)*%
X144907000Y-100076000D03*
%TO.P,U1,21,PA11*%
%TO.N,unconnected-(U1-PA11-Pad21)*%
X144107000Y-100076000D03*
%TO.P,U1,22,PA12*%
%TO.N,unconnected-(U1-PA12-Pad22)*%
X143307000Y-100076000D03*
%TO.P,U1,23,PA13*%
%TO.N,unconnected-(U1-PA13-Pad23)*%
X142507000Y-100076000D03*
%TO.P,U1,24,PA14*%
%TO.N,unconnected-(U1-PA14-Pad24)*%
X141707000Y-100076000D03*
D11*
%TO.P,U1,25,PA15*%
%TO.N,unconnected-(U1-PA15-Pad25)*%
X140332000Y-98701000D03*
%TO.P,U1,26,PB3*%
%TO.N,unconnected-(U1-PB3-Pad26)*%
X140332000Y-97901000D03*
%TO.P,U1,27,PB4*%
%TO.N,unconnected-(U1-PB4-Pad27)*%
X140332000Y-97101000D03*
%TO.P,U1,28,PB5*%
%TO.N,GND*%
X140332000Y-96301000D03*
%TO.P,U1,29,PB6*%
%TO.N,unconnected-(U1-PB6-Pad29)*%
X140332000Y-95501000D03*
%TO.P,U1,30,PB7*%
%TO.N,unconnected-(U1-PB7-Pad30)*%
X140332000Y-94701000D03*
%TO.P,U1,31,PB9*%
%TO.N,unconnected-(U1-PB9-Pad31)*%
X140332000Y-93901000D03*
%TO.P,U1,32,VSS*%
%TO.N,GND*%
X140332000Y-93101000D03*
%TD*%
D12*
%TO.N,GND*%
X130048000Y-77851000D03*
D13*
%TO.N,unconnected-(U1-PA14-Pad24)*%
X123808719Y-101728245D03*
%TO.N,unconnected-(U1-PB9-Pad31)*%
X125603000Y-77597000D03*
%TO.N,unconnected-(U1-PA11-Pad21)*%
X139701125Y-110077926D03*
%TO.N,unconnected-(U1-PB1-Pad15)*%
X155682628Y-101752236D03*
%TO.N,unconnected-(U1-PB6-Pad29)*%
X120523000Y-90170000D03*
%TO.N,unconnected-(U1-PC14-Pad2)*%
X139700086Y-71278078D03*
%TO.N,unconnected-(U1-NRST-Pad4)*%
X154051000Y-77597000D03*
%TO.N,unconnected-(U1-PA4-Pad10)*%
X159004000Y-90170000D03*
%TD*%
D14*
%TO.N,unconnected-(U1-PA14-Pad24)*%
X130429000Y-98679000D02*
X131953000Y-100203000D01*
X123808719Y-101585792D02*
X123872950Y-101521561D01*
X136271000Y-100203000D02*
X137414000Y-101346000D01*
X125476000Y-98679000D02*
X130429000Y-98679000D01*
X123872950Y-101521561D02*
X123872950Y-100282050D01*
X137414000Y-101346000D02*
X140437000Y-101346000D01*
X140437000Y-101346000D02*
X141707000Y-100076000D01*
X123808719Y-101728245D02*
X123808719Y-101585792D01*
X131953000Y-100203000D02*
X136271000Y-100203000D01*
X123872950Y-100282050D02*
X125476000Y-98679000D01*
%TO.N,unconnected-(U1-PB9-Pad31)*%
X129032000Y-84836000D02*
X127381000Y-84836000D01*
X125476000Y-79502000D02*
X125476000Y-77724000D01*
X127381000Y-84836000D02*
X125857000Y-83312000D01*
X140332000Y-93901000D02*
X137843000Y-93901000D01*
X135890000Y-91948000D02*
X135890000Y-90678000D01*
X125476000Y-77724000D02*
X125603000Y-77597000D01*
X125857000Y-79883000D02*
X125476000Y-79502000D01*
X132207000Y-86995000D02*
X131191000Y-86995000D01*
X131191000Y-86995000D02*
X129032000Y-84836000D01*
X125857000Y-83312000D02*
X125857000Y-79883000D01*
X135890000Y-90678000D02*
X132207000Y-86995000D01*
X137843000Y-93901000D02*
X135890000Y-91948000D01*
%TO.N,unconnected-(U1-PA11-Pad21)*%
X144107000Y-100076000D02*
X144107000Y-102400000D01*
X140970000Y-107188000D02*
X139700000Y-108458000D01*
X139700000Y-110076801D02*
X139701125Y-110077926D01*
X142240000Y-104267000D02*
X142240000Y-106172000D01*
X141224000Y-107188000D02*
X140970000Y-107188000D01*
X142240000Y-106172000D02*
X141224000Y-107188000D01*
X144107000Y-102400000D02*
X142240000Y-104267000D01*
X139700000Y-108458000D02*
X139700000Y-110076801D01*
%TO.N,unconnected-(U1-PB1-Pad15)*%
X148682000Y-97901000D02*
X151749000Y-97901000D01*
X155682628Y-101752236D02*
X155840265Y-101594599D01*
X155702000Y-100838000D02*
X155682628Y-100857372D01*
X151749000Y-97901000D02*
X153035000Y-99187000D01*
X155682628Y-100857372D02*
X155682628Y-101752236D01*
X153035000Y-99187000D02*
X154051000Y-99187000D01*
X155580864Y-101854000D02*
X155682628Y-101752236D01*
X154051000Y-99187000D02*
X155702000Y-100838000D01*
%TO.N,unconnected-(U1-PB6-Pad29)*%
X136271000Y-96012000D02*
X132588000Y-96012000D01*
X125095000Y-88900000D02*
X122555000Y-88900000D01*
X132588000Y-96012000D02*
X130810000Y-94234000D01*
X130810000Y-94234000D02*
X130810000Y-92837000D01*
X130810000Y-92837000D02*
X128397000Y-90424000D01*
X128397000Y-90424000D02*
X126619000Y-90424000D01*
X140332000Y-95501000D02*
X136782000Y-95501000D01*
X121285000Y-90170000D02*
X120523000Y-90170000D01*
X122555000Y-88900000D02*
X121285000Y-90170000D01*
X126619000Y-90424000D02*
X125095000Y-88900000D01*
X136782000Y-95501000D02*
X136271000Y-96012000D01*
%TO.N,unconnected-(U1-PC14-Pad2)*%
X139192000Y-84582000D02*
X139192000Y-82296000D01*
X138430000Y-75438000D02*
X138430000Y-72644000D01*
X139192000Y-82296000D02*
X139827000Y-81661000D01*
X139700086Y-71373914D02*
X139700086Y-71278078D01*
X138430000Y-72644000D02*
X139700086Y-71373914D01*
X142507000Y-89929000D02*
X140843000Y-88265000D01*
X140843000Y-86233000D02*
X139192000Y-84582000D01*
X139192000Y-77216000D02*
X139192000Y-76200000D01*
X139192000Y-76200000D02*
X138430000Y-75438000D01*
X139827000Y-77851000D02*
X139192000Y-77216000D01*
X139827000Y-81661000D02*
X139827000Y-77851000D01*
X142507000Y-91726000D02*
X142507000Y-89929000D01*
X140843000Y-88265000D02*
X140843000Y-86233000D01*
%TO.N,unconnected-(U1-NRST-Pad4)*%
X146177000Y-86614000D02*
X146177000Y-82804000D01*
X146177000Y-82804000D02*
X149352000Y-79629000D01*
X149352000Y-78740000D02*
X150495000Y-77597000D01*
X144107000Y-88684000D02*
X146177000Y-86614000D01*
X150495000Y-77597000D02*
X154051000Y-77597000D01*
X149352000Y-79629000D02*
X149352000Y-78740000D01*
X144107000Y-91726000D02*
X144107000Y-88684000D01*
%TO.N,unconnected-(U1-PA4-Pad10)*%
X152225000Y-93901000D02*
X153924000Y-92202000D01*
X153924000Y-92202000D02*
X156337000Y-92202000D01*
X148682000Y-93901000D02*
X152225000Y-93901000D01*
X158369000Y-90170000D02*
X159004000Y-90170000D01*
X156337000Y-92202000D02*
X158369000Y-90170000D01*
%TD*%
%TA.AperFunction,Conductor*%
%TO.N,GND*%
G36*
X139106700Y-71012390D02*
G01*
X139154715Y-71063148D01*
X139167666Y-71131806D01*
X139164050Y-71151623D01*
X139149586Y-71205603D01*
X139149586Y-71350551D01*
X139150647Y-71358609D01*
X139147202Y-71359062D01*
X139145903Y-71412945D01*
X139115484Y-71462832D01*
X138149531Y-72428786D01*
X138149527Y-72428791D01*
X138103387Y-72508709D01*
X138103386Y-72508712D01*
X138079500Y-72597856D01*
X138079500Y-75484143D01*
X138103386Y-75573287D01*
X138103387Y-75573290D01*
X138149527Y-75653208D01*
X138149531Y-75653213D01*
X138805181Y-76308863D01*
X138838666Y-76370186D01*
X138841500Y-76396544D01*
X138841500Y-77262144D01*
X138856073Y-77316531D01*
X138865385Y-77351286D01*
X138911527Y-77431208D01*
X138911531Y-77431213D01*
X139440181Y-77959863D01*
X139473666Y-78021186D01*
X139476500Y-78047544D01*
X139476500Y-81464456D01*
X139456815Y-81531495D01*
X139440181Y-81552137D01*
X138911531Y-82080786D01*
X138911527Y-82080791D01*
X138865387Y-82160709D01*
X138865386Y-82160712D01*
X138841500Y-82249856D01*
X138841500Y-84628143D01*
X138865386Y-84717287D01*
X138865387Y-84717290D01*
X138911527Y-84797208D01*
X138911531Y-84797213D01*
X140456181Y-86341863D01*
X140489666Y-86403186D01*
X140492500Y-86429544D01*
X140492500Y-88311143D01*
X140516386Y-88400287D01*
X140516387Y-88400290D01*
X140562527Y-88480208D01*
X140562529Y-88480211D01*
X140562530Y-88480212D01*
X141352503Y-89270185D01*
X142120181Y-90037862D01*
X142153666Y-90099185D01*
X142156500Y-90125543D01*
X142156500Y-90379280D01*
X142136815Y-90446319D01*
X142084011Y-90492074D01*
X142014853Y-90502018D01*
X141997905Y-90498356D01*
X141957000Y-90486472D01*
X141957000Y-92965525D01*
X142082185Y-92929156D01*
X142082191Y-92929154D01*
X142218108Y-92848773D01*
X142218116Y-92848767D01*
X142304065Y-92762819D01*
X142365388Y-92729334D01*
X142391746Y-92726500D01*
X142667630Y-92726500D01*
X142667636Y-92726500D01*
X142740625Y-92715866D01*
X142852540Y-92661153D01*
X142921412Y-92649394D01*
X142961458Y-92661153D01*
X143020504Y-92690019D01*
X143073372Y-92715865D01*
X143073373Y-92715865D01*
X143073375Y-92715866D01*
X143146364Y-92726500D01*
X143146370Y-92726500D01*
X143467630Y-92726500D01*
X143467636Y-92726500D01*
X143540625Y-92715866D01*
X143652540Y-92661153D01*
X143721412Y-92649394D01*
X143761458Y-92661153D01*
X143820504Y-92690019D01*
X143873372Y-92715865D01*
X143873373Y-92715865D01*
X143873375Y-92715866D01*
X143946364Y-92726500D01*
X143946370Y-92726500D01*
X144222255Y-92726500D01*
X144289294Y-92746185D01*
X144309937Y-92762819D01*
X144395887Y-92848770D01*
X144395891Y-92848773D01*
X144531808Y-92929154D01*
X144531814Y-92929156D01*
X144656999Y-92965525D01*
X144657000Y-92965525D01*
X144657000Y-90486472D01*
X144656999Y-90486472D01*
X144616095Y-90498356D01*
X144546225Y-90498157D01*
X144487555Y-90460215D01*
X144458712Y-90396576D01*
X144457500Y-90379280D01*
X144457500Y-88880544D01*
X144477185Y-88813505D01*
X144493819Y-88792863D01*
X145218226Y-88068456D01*
X146457470Y-86829212D01*
X146503614Y-86749288D01*
X146512927Y-86714530D01*
X146527500Y-86660144D01*
X146527500Y-83000544D01*
X146547185Y-82933505D01*
X146563819Y-82912863D01*
X148012226Y-81464456D01*
X149632470Y-79844212D01*
X149678614Y-79764288D01*
X149702500Y-79675144D01*
X149702500Y-78936544D01*
X149722185Y-78869505D01*
X149738819Y-78848863D01*
X150603863Y-77983819D01*
X150665186Y-77950334D01*
X150691544Y-77947500D01*
X153571614Y-77947500D01*
X153638653Y-77967185D01*
X153659295Y-77983819D01*
X153712985Y-78037509D01*
X153712986Y-78037510D01*
X153712988Y-78037511D01*
X153838511Y-78109982D01*
X153838512Y-78109982D01*
X153838515Y-78109984D01*
X153978525Y-78147500D01*
X153978528Y-78147500D01*
X154123472Y-78147500D01*
X154123475Y-78147500D01*
X154263485Y-78109984D01*
X154389015Y-78037509D01*
X154491509Y-77935015D01*
X154516933Y-77890978D01*
X154567500Y-77842764D01*
X154636107Y-77829540D01*
X154700971Y-77855508D01*
X154719306Y-77873269D01*
X155115605Y-78345560D01*
X155118983Y-78349770D01*
X155253279Y-78524788D01*
X155638900Y-79027340D01*
X155642099Y-79031702D01*
X156131985Y-79731329D01*
X156134991Y-79735828D01*
X156593887Y-80456152D01*
X156596693Y-80460777D01*
X157023727Y-81200420D01*
X157026329Y-81205163D01*
X157420693Y-81962729D01*
X157423086Y-81967582D01*
X157784033Y-82741639D01*
X157786212Y-82746590D01*
X157870129Y-82949182D01*
X158109557Y-83527212D01*
X158113051Y-83535646D01*
X158115012Y-83540689D01*
X158407124Y-84343261D01*
X158408863Y-84348383D01*
X158665687Y-85162925D01*
X158667201Y-85168119D01*
X158888252Y-85993091D01*
X158889538Y-85998346D01*
X159074397Y-86832189D01*
X159075452Y-86837496D01*
X159223758Y-87678580D01*
X159224581Y-87683927D01*
X159336059Y-88530694D01*
X159336648Y-88536072D01*
X159411085Y-89386891D01*
X159411439Y-89392290D01*
X159418478Y-89553522D01*
X159401736Y-89621356D01*
X159350978Y-89669370D01*
X159282319Y-89682321D01*
X159232596Y-89666317D01*
X159216488Y-89657017D01*
X159216489Y-89657017D01*
X159205006Y-89653940D01*
X159076475Y-89619500D01*
X158931525Y-89619500D01*
X158802993Y-89653940D01*
X158791511Y-89657017D01*
X158665988Y-89729488D01*
X158665982Y-89729493D01*
X158612295Y-89783181D01*
X158550972Y-89816666D01*
X158524614Y-89819500D01*
X158322856Y-89819500D01*
X158233712Y-89843386D01*
X158233709Y-89843387D01*
X158153791Y-89889527D01*
X158153786Y-89889531D01*
X156228137Y-91815181D01*
X156166814Y-91848666D01*
X156140456Y-91851500D01*
X153877856Y-91851500D01*
X153788712Y-91875386D01*
X153788709Y-91875387D01*
X153708791Y-91921527D01*
X153708786Y-91921531D01*
X152116137Y-93514181D01*
X152054814Y-93547666D01*
X152028456Y-93550500D01*
X149764976Y-93550500D01*
X149697937Y-93530815D01*
X149652182Y-93478011D01*
X149642238Y-93408853D01*
X149653575Y-93372040D01*
X149656526Y-93366002D01*
X149671866Y-93334625D01*
X149682500Y-93261636D01*
X149682500Y-92940364D01*
X149671866Y-92867375D01*
X149662769Y-92848767D01*
X149616827Y-92754789D01*
X149528210Y-92666172D01*
X149415628Y-92611135D01*
X149415626Y-92611134D01*
X149415625Y-92611134D01*
X149342636Y-92600500D01*
X148021364Y-92600500D01*
X147948375Y-92611134D01*
X147948373Y-92611134D01*
X147938845Y-92612523D01*
X147938441Y-92609752D01*
X147883657Y-92610514D01*
X147824360Y-92573560D01*
X147794455Y-92510413D01*
X147797392Y-92469434D01*
X147795477Y-92469155D01*
X147796865Y-92459626D01*
X147796866Y-92459625D01*
X147807500Y-92386636D01*
X147807500Y-91065364D01*
X147796866Y-90992375D01*
X147794518Y-90987572D01*
X147741827Y-90879789D01*
X147653210Y-90791172D01*
X147540628Y-90736135D01*
X147540626Y-90736134D01*
X147540625Y-90736134D01*
X147467636Y-90725500D01*
X147146364Y-90725500D01*
X147091622Y-90733475D01*
X147073373Y-90736134D01*
X146961460Y-90790846D01*
X146892587Y-90802605D01*
X146852540Y-90790846D01*
X146740626Y-90736134D01*
X146730198Y-90734614D01*
X146667636Y-90725500D01*
X146346364Y-90725500D01*
X146291622Y-90733475D01*
X146273373Y-90736134D01*
X146161460Y-90790846D01*
X146092587Y-90802605D01*
X146052540Y-90790846D01*
X145940626Y-90736134D01*
X145930198Y-90734614D01*
X145867636Y-90725500D01*
X145591745Y-90725500D01*
X145524706Y-90705815D01*
X145504063Y-90689181D01*
X145418112Y-90603229D01*
X145418108Y-90603226D01*
X145282188Y-90522844D01*
X145282187Y-90522843D01*
X145157000Y-90486472D01*
X145157000Y-92965525D01*
X145282185Y-92929156D01*
X145282191Y-92929154D01*
X145418108Y-92848773D01*
X145418116Y-92848767D01*
X145504065Y-92762819D01*
X145565388Y-92729334D01*
X145591746Y-92726500D01*
X145867630Y-92726500D01*
X145867636Y-92726500D01*
X145940625Y-92715866D01*
X146052540Y-92661153D01*
X146121412Y-92649394D01*
X146161458Y-92661153D01*
X146220504Y-92690019D01*
X146273372Y-92715865D01*
X146273373Y-92715865D01*
X146273375Y-92715866D01*
X146346364Y-92726500D01*
X146346370Y-92726500D01*
X146667630Y-92726500D01*
X146667636Y-92726500D01*
X146740625Y-92715866D01*
X146852540Y-92661153D01*
X146921412Y-92649394D01*
X146961458Y-92661153D01*
X147020504Y-92690019D01*
X147073372Y-92715865D01*
X147073373Y-92715865D01*
X147073375Y-92715866D01*
X147146364Y-92726500D01*
X147146370Y-92726500D01*
X147467630Y-92726500D01*
X147467636Y-92726500D01*
X147540625Y-92715866D01*
X147540626Y-92715865D01*
X147550155Y-92714477D01*
X147550559Y-92717252D01*
X147605306Y-92716475D01*
X147664614Y-92753412D01*
X147694538Y-92816549D01*
X147691610Y-92857566D01*
X147693523Y-92857845D01*
X147692134Y-92867373D01*
X147692134Y-92867375D01*
X147681500Y-92940364D01*
X147681500Y-93261636D01*
X147690614Y-93324198D01*
X147692134Y-93334626D01*
X147746846Y-93446540D01*
X147758605Y-93515413D01*
X147746846Y-93555460D01*
X147692134Y-93667373D01*
X147691059Y-93674755D01*
X147681500Y-93740364D01*
X147681500Y-94061636D01*
X147690614Y-94124198D01*
X147692134Y-94134626D01*
X147729537Y-94211134D01*
X147746845Y-94246539D01*
X147746846Y-94246540D01*
X147758605Y-94315413D01*
X147746846Y-94355459D01*
X147745098Y-94359034D01*
X147692134Y-94467373D01*
X147692134Y-94467375D01*
X147681500Y-94540364D01*
X147681500Y-94861636D01*
X147690614Y-94924198D01*
X147692134Y-94934626D01*
X147710425Y-94972040D01*
X147746845Y-95046539D01*
X147746846Y-95046540D01*
X147758605Y-95115413D01*
X147746846Y-95155459D01*
X147745098Y-95159034D01*
X147692134Y-95267373D01*
X147692134Y-95267375D01*
X147681500Y-95340364D01*
X147681500Y-95661636D01*
X147687663Y-95703935D01*
X147692134Y-95734626D01*
X147719148Y-95789883D01*
X147746845Y-95846539D01*
X147746846Y-95846540D01*
X147758605Y-95915413D01*
X147746846Y-95955459D01*
X147745098Y-95959034D01*
X147692134Y-96067373D01*
X147692134Y-96067375D01*
X147681500Y-96140364D01*
X147681500Y-96461636D01*
X147690614Y-96524198D01*
X147692134Y-96534626D01*
X147700139Y-96551000D01*
X147746845Y-96646539D01*
X147746846Y-96646540D01*
X147758605Y-96715413D01*
X147746846Y-96755459D01*
X147745098Y-96759034D01*
X147692134Y-96867373D01*
X147692134Y-96867375D01*
X147681500Y-96940364D01*
X147681500Y-97261636D01*
X147690614Y-97324198D01*
X147692134Y-97334626D01*
X147710425Y-97372040D01*
X147746845Y-97446539D01*
X147746846Y-97446540D01*
X147758605Y-97515413D01*
X147746846Y-97555459D01*
X147745098Y-97559034D01*
X147692134Y-97667373D01*
X147692134Y-97667375D01*
X147681500Y-97740364D01*
X147681500Y-97740369D01*
X147681500Y-98016254D01*
X147661815Y-98083293D01*
X147645181Y-98103935D01*
X147559232Y-98189883D01*
X147559226Y-98189891D01*
X147478845Y-98325808D01*
X147478843Y-98325814D01*
X147442474Y-98450999D01*
X147442474Y-98451000D01*
X149921526Y-98451000D01*
X149921525Y-98450999D01*
X149909642Y-98410095D01*
X149909841Y-98340225D01*
X149947783Y-98281555D01*
X150011422Y-98252712D01*
X150028718Y-98251500D01*
X151552456Y-98251500D01*
X151619495Y-98271185D01*
X151640137Y-98287819D01*
X152819788Y-99467470D01*
X152899712Y-99513614D01*
X152988856Y-99537500D01*
X152988857Y-99537500D01*
X153081144Y-99537500D01*
X153854456Y-99537500D01*
X153921495Y-99557185D01*
X153942137Y-99573819D01*
X155295809Y-100927491D01*
X155329294Y-100988814D01*
X155332128Y-101015172D01*
X155332128Y-101272850D01*
X155312443Y-101339889D01*
X155295809Y-101360531D01*
X155242121Y-101414218D01*
X155242116Y-101414224D01*
X155169645Y-101539747D01*
X155169644Y-101539751D01*
X155132128Y-101679761D01*
X155132128Y-101824711D01*
X155169644Y-101964721D01*
X155169645Y-101964724D01*
X155242116Y-102090247D01*
X155242118Y-102090249D01*
X155242119Y-102090251D01*
X155344613Y-102192745D01*
X155344614Y-102192746D01*
X155344616Y-102192747D01*
X155470139Y-102265218D01*
X155470141Y-102265219D01*
X155470143Y-102265220D01*
X155471241Y-102265514D01*
X155472064Y-102266015D01*
X155477647Y-102268328D01*
X155477286Y-102269198D01*
X155530902Y-102301878D01*
X155561432Y-102364724D01*
X155553138Y-102434100D01*
X155537525Y-102460775D01*
X155118991Y-103006219D01*
X155115604Y-103010439D01*
X154566591Y-103664727D01*
X154563024Y-103668794D01*
X153986037Y-104298465D01*
X153982296Y-104302373D01*
X153378373Y-104906296D01*
X153374465Y-104910037D01*
X152744794Y-105487024D01*
X152740727Y-105490591D01*
X152086439Y-106039604D01*
X152082219Y-106042991D01*
X151404659Y-106562900D01*
X151400297Y-106566099D01*
X150700670Y-107055985D01*
X150696171Y-107058991D01*
X149975847Y-107517887D01*
X149971222Y-107520693D01*
X149231579Y-107947727D01*
X149226836Y-107950329D01*
X148469270Y-108344693D01*
X148464417Y-108347086D01*
X147690360Y-108708033D01*
X147685409Y-108710212D01*
X146896353Y-109037051D01*
X146891310Y-109039012D01*
X146088738Y-109331124D01*
X146083616Y-109332863D01*
X145269074Y-109589687D01*
X145263880Y-109591201D01*
X144438908Y-109812252D01*
X144433653Y-109813538D01*
X143599810Y-109998397D01*
X143594503Y-109999452D01*
X142753419Y-110147758D01*
X142748072Y-110148581D01*
X141901305Y-110260059D01*
X141895927Y-110260648D01*
X141045108Y-110335085D01*
X141039710Y-110335439D01*
X140361081Y-110365069D01*
X140293247Y-110348327D01*
X140245232Y-110297570D01*
X140232281Y-110228911D01*
X140235896Y-110209099D01*
X140251625Y-110150401D01*
X140251625Y-110005451D01*
X140214109Y-109865441D01*
X140183400Y-109812252D01*
X140141636Y-109739914D01*
X140141631Y-109739908D01*
X140086819Y-109685096D01*
X140053334Y-109623773D01*
X140050500Y-109597415D01*
X140050500Y-108654544D01*
X140070185Y-108587505D01*
X140086819Y-108566863D01*
X141078863Y-107574819D01*
X141140186Y-107541334D01*
X141166544Y-107538500D01*
X141270142Y-107538500D01*
X141270144Y-107538500D01*
X141359288Y-107514614D01*
X141439212Y-107468470D01*
X142520470Y-106387212D01*
X142566614Y-106307288D01*
X142590500Y-106218144D01*
X142590500Y-104463544D01*
X142610185Y-104396505D01*
X142626819Y-104375863D01*
X143364669Y-103638013D01*
X144387470Y-102615212D01*
X144433614Y-102535288D01*
X144457500Y-102446143D01*
X144457500Y-102353856D01*
X144457500Y-101158975D01*
X144477185Y-101091936D01*
X144529989Y-101046181D01*
X144599147Y-101036237D01*
X144635957Y-101047573D01*
X144673375Y-101065866D01*
X144746364Y-101076500D01*
X144746370Y-101076500D01*
X145067630Y-101076500D01*
X145067636Y-101076500D01*
X145140625Y-101065866D01*
X145252540Y-101011153D01*
X145321412Y-100999394D01*
X145361458Y-101011153D01*
X145411905Y-101035815D01*
X145473372Y-101065865D01*
X145473373Y-101065865D01*
X145473375Y-101065866D01*
X145546364Y-101076500D01*
X145546370Y-101076500D01*
X145867630Y-101076500D01*
X145867636Y-101076500D01*
X145940625Y-101065866D01*
X146052540Y-101011153D01*
X146121412Y-100999394D01*
X146161458Y-101011153D01*
X146211905Y-101035815D01*
X146273372Y-101065865D01*
X146273373Y-101065865D01*
X146273375Y-101065866D01*
X146346364Y-101076500D01*
X146346370Y-101076500D01*
X146622255Y-101076500D01*
X146689294Y-101096185D01*
X146709937Y-101112819D01*
X146795887Y-101198770D01*
X146795891Y-101198773D01*
X146931808Y-101279154D01*
X146931814Y-101279156D01*
X147056999Y-101315525D01*
X147057000Y-101315525D01*
X147557000Y-101315525D01*
X147682185Y-101279156D01*
X147682191Y-101279154D01*
X147818108Y-101198773D01*
X147818116Y-101198767D01*
X147929767Y-101087116D01*
X147929773Y-101087108D01*
X148010155Y-100951188D01*
X148010156Y-100951185D01*
X148054210Y-100799553D01*
X148054211Y-100799547D01*
X148056999Y-100764118D01*
X148057000Y-100764105D01*
X148057000Y-100326000D01*
X147557000Y-100326000D01*
X147557000Y-101315525D01*
X147057000Y-101315525D01*
X147057000Y-99826000D01*
X147557000Y-99826000D01*
X148057000Y-99826000D01*
X148057000Y-99575000D01*
X148076685Y-99507961D01*
X148129489Y-99462206D01*
X148181000Y-99451000D01*
X148432000Y-99451000D01*
X148932000Y-99451000D01*
X149370106Y-99451000D01*
X149370118Y-99450999D01*
X149405547Y-99448211D01*
X149405553Y-99448210D01*
X149557185Y-99404156D01*
X149557188Y-99404155D01*
X149693108Y-99323773D01*
X149693116Y-99323767D01*
X149804767Y-99212116D01*
X149804773Y-99212108D01*
X149885154Y-99076191D01*
X149885156Y-99076185D01*
X149921525Y-98951000D01*
X148932000Y-98951000D01*
X148932000Y-99451000D01*
X148432000Y-99451000D01*
X148432000Y-98951000D01*
X147557000Y-98951000D01*
X147557000Y-99826000D01*
X147057000Y-99826000D01*
X147057000Y-98836472D01*
X146931812Y-98872843D01*
X146931811Y-98872844D01*
X146795891Y-98953226D01*
X146795883Y-98953232D01*
X146709935Y-99039181D01*
X146648612Y-99072666D01*
X146622254Y-99075500D01*
X146346364Y-99075500D01*
X146291622Y-99083475D01*
X146273373Y-99086134D01*
X146161460Y-99140846D01*
X146092587Y-99152605D01*
X146052540Y-99140846D01*
X145940626Y-99086134D01*
X145930198Y-99084614D01*
X145867636Y-99075500D01*
X145546364Y-99075500D01*
X145491622Y-99083475D01*
X145473373Y-99086134D01*
X145361460Y-99140846D01*
X145292587Y-99152605D01*
X145252540Y-99140846D01*
X145140626Y-99086134D01*
X145130198Y-99084614D01*
X145067636Y-99075500D01*
X144746364Y-99075500D01*
X144691622Y-99083475D01*
X144673373Y-99086134D01*
X144561460Y-99140846D01*
X144492587Y-99152605D01*
X144452540Y-99140846D01*
X144340626Y-99086134D01*
X144330198Y-99084614D01*
X144267636Y-99075500D01*
X143946364Y-99075500D01*
X143891622Y-99083475D01*
X143873373Y-99086134D01*
X143761460Y-99140846D01*
X143692587Y-99152605D01*
X143652540Y-99140846D01*
X143540626Y-99086134D01*
X143530198Y-99084614D01*
X143467636Y-99075500D01*
X143146364Y-99075500D01*
X143091622Y-99083475D01*
X143073373Y-99086134D01*
X142961460Y-99140846D01*
X142892587Y-99152605D01*
X142852540Y-99140846D01*
X142740626Y-99086134D01*
X142730198Y-99084614D01*
X142667636Y-99075500D01*
X142346364Y-99075500D01*
X142291622Y-99083475D01*
X142273373Y-99086134D01*
X142161460Y-99140846D01*
X142092587Y-99152605D01*
X142052540Y-99140846D01*
X141940626Y-99086134D01*
X141930198Y-99084614D01*
X141867636Y-99075500D01*
X141546364Y-99075500D01*
X141473375Y-99086134D01*
X141473373Y-99086134D01*
X141463845Y-99087523D01*
X141463441Y-99084752D01*
X141408657Y-99085514D01*
X141349360Y-99048560D01*
X141319455Y-98985413D01*
X141322392Y-98944434D01*
X141320477Y-98944155D01*
X141321865Y-98934626D01*
X141321866Y-98934625D01*
X141332500Y-98861636D01*
X141332500Y-98540364D01*
X141321866Y-98467375D01*
X141313860Y-98450999D01*
X141284463Y-98390866D01*
X141267153Y-98355459D01*
X141255394Y-98286588D01*
X141267154Y-98246540D01*
X141321866Y-98134625D01*
X141332500Y-98061636D01*
X141332500Y-97740364D01*
X141321866Y-97667375D01*
X141267153Y-97555459D01*
X141255394Y-97486588D01*
X141267154Y-97446540D01*
X141321866Y-97334625D01*
X141332500Y-97261636D01*
X141332500Y-96985745D01*
X141352185Y-96918707D01*
X141368819Y-96898065D01*
X141454767Y-96812116D01*
X141454773Y-96812108D01*
X141535154Y-96676191D01*
X141535156Y-96676185D01*
X141571525Y-96551000D01*
X139092474Y-96551000D01*
X139128843Y-96676185D01*
X139128845Y-96676191D01*
X139209226Y-96812108D01*
X139209229Y-96812112D01*
X139295181Y-96898063D01*
X139328666Y-96959386D01*
X139331500Y-96985745D01*
X139331500Y-97261636D01*
X139340614Y-97324198D01*
X139342134Y-97334626D01*
X139360425Y-97372040D01*
X139396845Y-97446539D01*
X139396846Y-97446540D01*
X139408605Y-97515413D01*
X139396846Y-97555459D01*
X139395098Y-97559034D01*
X139342134Y-97667373D01*
X139342134Y-97667375D01*
X139331500Y-97740364D01*
X139331500Y-98061636D01*
X139337663Y-98103935D01*
X139342134Y-98134626D01*
X139365506Y-98182434D01*
X139396845Y-98246539D01*
X139396846Y-98246540D01*
X139408605Y-98315413D01*
X139396846Y-98355459D01*
X139395098Y-98359034D01*
X139342134Y-98467373D01*
X139342134Y-98467375D01*
X139331500Y-98540364D01*
X139331500Y-98861636D01*
X139342134Y-98934625D01*
X139342134Y-98934626D01*
X139342135Y-98934628D01*
X139397172Y-99047210D01*
X139485789Y-99135827D01*
X139593572Y-99188518D01*
X139598375Y-99190866D01*
X139671364Y-99201500D01*
X139671370Y-99201500D01*
X140992630Y-99201500D01*
X140992636Y-99201500D01*
X141065625Y-99190866D01*
X141065626Y-99190865D01*
X141075155Y-99189477D01*
X141075559Y-99192252D01*
X141130306Y-99191475D01*
X141189614Y-99228412D01*
X141219538Y-99291549D01*
X141216610Y-99332566D01*
X141218523Y-99332845D01*
X141217134Y-99342373D01*
X141217134Y-99342375D01*
X141206500Y-99415364D01*
X141206500Y-99415369D01*
X141206500Y-100029456D01*
X141186815Y-100096495D01*
X141170181Y-100117137D01*
X140328137Y-100959181D01*
X140266814Y-100992666D01*
X140240456Y-100995500D01*
X137610544Y-100995500D01*
X137543505Y-100975815D01*
X137522863Y-100959181D01*
X136486213Y-99922531D01*
X136486208Y-99922527D01*
X136406290Y-99876387D01*
X136406289Y-99876386D01*
X136406288Y-99876386D01*
X136317144Y-99852500D01*
X136317143Y-99852500D01*
X132149544Y-99852500D01*
X132082505Y-99832815D01*
X132061863Y-99816181D01*
X130644213Y-98398531D01*
X130644208Y-98398527D01*
X130564290Y-98352387D01*
X130564289Y-98352386D01*
X130564288Y-98352386D01*
X130475144Y-98328500D01*
X125429856Y-98328500D01*
X125340712Y-98352386D01*
X125340709Y-98352387D01*
X125260791Y-98398527D01*
X125260786Y-98398531D01*
X123592482Y-100066835D01*
X123592478Y-100066841D01*
X123560549Y-100122144D01*
X123546337Y-100146759D01*
X123546336Y-100146762D01*
X123522450Y-100235906D01*
X123522450Y-101186880D01*
X123513605Y-101217000D01*
X123506563Y-101247606D01*
X123503622Y-101250999D01*
X123502765Y-101253919D01*
X123485075Y-101275605D01*
X123475465Y-101284986D01*
X123470704Y-101287736D01*
X123390442Y-101367997D01*
X123389851Y-101368575D01*
X123359635Y-101384606D01*
X123329583Y-101401017D01*
X123328811Y-101400961D01*
X123328131Y-101401323D01*
X123294060Y-101398475D01*
X123259891Y-101396031D01*
X123259272Y-101395568D01*
X123258504Y-101395504D01*
X123231358Y-101374671D01*
X123203958Y-101354159D01*
X123203197Y-101353059D01*
X123203076Y-101352966D01*
X123203014Y-101352793D01*
X123198645Y-101346475D01*
X122987582Y-101015172D01*
X122914110Y-100899845D01*
X122911306Y-100895222D01*
X122904909Y-100884142D01*
X122484260Y-100155558D01*
X122481681Y-100150857D01*
X122087298Y-99393253D01*
X122084913Y-99388417D01*
X121723966Y-98614360D01*
X121721787Y-98609409D01*
X121634438Y-98398530D01*
X121394938Y-97820329D01*
X121392987Y-97815310D01*
X121339142Y-97667373D01*
X121100875Y-97012738D01*
X121099136Y-97007616D01*
X121092240Y-96985746D01*
X120842310Y-96193069D01*
X120840798Y-96187880D01*
X120619739Y-95362878D01*
X120618468Y-95357684D01*
X120433596Y-94523783D01*
X120432552Y-94518530D01*
X120284235Y-93677386D01*
X120283423Y-93672106D01*
X120171939Y-92825300D01*
X120171351Y-92819927D01*
X120096913Y-91969101D01*
X120096560Y-91963710D01*
X120094718Y-91921531D01*
X120059306Y-91110444D01*
X120059188Y-91105035D01*
X120059188Y-90752654D01*
X120078873Y-90685615D01*
X120131677Y-90639860D01*
X120200835Y-90629916D01*
X120245189Y-90645268D01*
X120310509Y-90682981D01*
X120310510Y-90682982D01*
X120310512Y-90682982D01*
X120310515Y-90682984D01*
X120450525Y-90720500D01*
X120450528Y-90720500D01*
X120595472Y-90720500D01*
X120595475Y-90720500D01*
X120735485Y-90682984D01*
X120861015Y-90610509D01*
X120914705Y-90556819D01*
X120976028Y-90523334D01*
X121002386Y-90520500D01*
X121331142Y-90520500D01*
X121331144Y-90520500D01*
X121420288Y-90496614D01*
X121430912Y-90490480D01*
X121500212Y-90450470D01*
X122663863Y-89286819D01*
X122725186Y-89253334D01*
X122751544Y-89250500D01*
X124898456Y-89250500D01*
X124965495Y-89270185D01*
X124986137Y-89286819D01*
X126403787Y-90704469D01*
X126437865Y-90724144D01*
X126437866Y-90724145D01*
X126483706Y-90750611D01*
X126483707Y-90750611D01*
X126483712Y-90750614D01*
X126572856Y-90774500D01*
X128200456Y-90774500D01*
X128267495Y-90794185D01*
X128288137Y-90810819D01*
X130423181Y-92945862D01*
X130456666Y-93007185D01*
X130459500Y-93033543D01*
X130459500Y-94280145D01*
X130474419Y-94335825D01*
X130483384Y-94369283D01*
X130483387Y-94369290D01*
X130529527Y-94449208D01*
X130529529Y-94449211D01*
X130529530Y-94449212D01*
X132372788Y-96292470D01*
X132452712Y-96338614D01*
X132541856Y-96362500D01*
X132541857Y-96362500D01*
X132541858Y-96362500D01*
X136317142Y-96362500D01*
X136317144Y-96362500D01*
X136406288Y-96338614D01*
X136486212Y-96292470D01*
X136890863Y-95887819D01*
X136952186Y-95854334D01*
X136978544Y-95851500D01*
X138985282Y-95851500D01*
X139052321Y-95871185D01*
X139098076Y-95923989D01*
X139108020Y-95993147D01*
X139104358Y-96010095D01*
X139092474Y-96050999D01*
X139092474Y-96051000D01*
X141571526Y-96051000D01*
X141571525Y-96050999D01*
X141535156Y-95925814D01*
X141535154Y-95925808D01*
X141454773Y-95789891D01*
X141454767Y-95789883D01*
X141368819Y-95703935D01*
X141335334Y-95642612D01*
X141332500Y-95616254D01*
X141332500Y-95340369D01*
X141332500Y-95340364D01*
X141321866Y-95267375D01*
X141267153Y-95155459D01*
X141255394Y-95086588D01*
X141267154Y-95046540D01*
X141321866Y-94934625D01*
X141332500Y-94861636D01*
X141332500Y-94540364D01*
X141321866Y-94467375D01*
X141267153Y-94355459D01*
X141255394Y-94286588D01*
X141267154Y-94246540D01*
X141321866Y-94134625D01*
X141332500Y-94061636D01*
X141332500Y-93785746D01*
X141352185Y-93718707D01*
X141368819Y-93698065D01*
X141454767Y-93612116D01*
X141454773Y-93612108D01*
X141535154Y-93476191D01*
X141535156Y-93476185D01*
X141571525Y-93351000D01*
X139092474Y-93351000D01*
X139104358Y-93391905D01*
X139104159Y-93461775D01*
X139066217Y-93520445D01*
X139002578Y-93549288D01*
X138985282Y-93550500D01*
X138039544Y-93550500D01*
X137972505Y-93530815D01*
X137951863Y-93514181D01*
X137288681Y-92850999D01*
X139092474Y-92850999D01*
X139092474Y-92851000D01*
X140082000Y-92851000D01*
X140082000Y-92351000D01*
X140582000Y-92351000D01*
X140582000Y-92851000D01*
X141457000Y-92851000D01*
X141457000Y-91976000D01*
X140957000Y-91976000D01*
X140957000Y-92227000D01*
X140937315Y-92294039D01*
X140884511Y-92339794D01*
X140833000Y-92351000D01*
X140582000Y-92351000D01*
X140082000Y-92351000D01*
X139643881Y-92351000D01*
X139608452Y-92353788D01*
X139608446Y-92353789D01*
X139456814Y-92397843D01*
X139456811Y-92397844D01*
X139320891Y-92478226D01*
X139320883Y-92478232D01*
X139209232Y-92589883D01*
X139209226Y-92589891D01*
X139128845Y-92725808D01*
X139128843Y-92725814D01*
X139092474Y-92850999D01*
X137288681Y-92850999D01*
X136276819Y-91839137D01*
X136243334Y-91777814D01*
X136240500Y-91751456D01*
X136240500Y-91037881D01*
X140957000Y-91037881D01*
X140957000Y-91476000D01*
X141457000Y-91476000D01*
X141457000Y-90486472D01*
X141331812Y-90522843D01*
X141331811Y-90522844D01*
X141195891Y-90603226D01*
X141195883Y-90603232D01*
X141084232Y-90714883D01*
X141084226Y-90714891D01*
X141003844Y-90850811D01*
X141003843Y-90850814D01*
X140959789Y-91002446D01*
X140959788Y-91002452D01*
X140957000Y-91037881D01*
X136240500Y-91037881D01*
X136240500Y-90631858D01*
X136240500Y-90631856D01*
X136216614Y-90542712D01*
X136203790Y-90520500D01*
X136203790Y-90520499D01*
X136170474Y-90462794D01*
X136170468Y-90462786D01*
X132422213Y-86714531D01*
X132422208Y-86714527D01*
X132342290Y-86668387D01*
X132342289Y-86668386D01*
X132342288Y-86668386D01*
X132253144Y-86644500D01*
X132253143Y-86644500D01*
X131387544Y-86644500D01*
X131320505Y-86624815D01*
X131299863Y-86608181D01*
X129247213Y-84555531D01*
X129247208Y-84555527D01*
X129167290Y-84509387D01*
X129167289Y-84509386D01*
X129167288Y-84509386D01*
X129078144Y-84485500D01*
X129078143Y-84485500D01*
X127577544Y-84485500D01*
X127510505Y-84465815D01*
X127489863Y-84449181D01*
X126243819Y-83203137D01*
X126210334Y-83141814D01*
X126207500Y-83115456D01*
X126207500Y-79836858D01*
X126207500Y-79836856D01*
X126183614Y-79747712D01*
X126175434Y-79733544D01*
X126137473Y-79667794D01*
X126137470Y-79667791D01*
X126137469Y-79667788D01*
X126072212Y-79602531D01*
X125969176Y-79499495D01*
X125862819Y-79393137D01*
X125829334Y-79331814D01*
X125826500Y-79305456D01*
X125826500Y-78175215D01*
X125846185Y-78108176D01*
X125888498Y-78067829D01*
X125941015Y-78037509D01*
X126043509Y-77935015D01*
X126115984Y-77809485D01*
X126153500Y-77669475D01*
X126153500Y-77524525D01*
X126115984Y-77384515D01*
X126096800Y-77351288D01*
X126043511Y-77258988D01*
X126043506Y-77258982D01*
X125941017Y-77156493D01*
X125941011Y-77156488D01*
X125815488Y-77084017D01*
X125815483Y-77084015D01*
X125770428Y-77071942D01*
X125710768Y-77035576D01*
X125680240Y-76972729D01*
X125688535Y-76903354D01*
X125714839Y-76864490D01*
X126129649Y-76449680D01*
X126133511Y-76445983D01*
X126763221Y-75868960D01*
X126767272Y-75865408D01*
X127421560Y-75316395D01*
X127425741Y-75313038D01*
X128103350Y-74793091D01*
X128107702Y-74789900D01*
X128807359Y-74299993D01*
X128811797Y-74297028D01*
X129532174Y-73838098D01*
X129536754Y-73835319D01*
X130276460Y-73408249D01*
X130281123Y-73405691D01*
X131038764Y-73011288D01*
X131043563Y-73008921D01*
X131817639Y-72647966D01*
X131822578Y-72645791D01*
X132611686Y-72318932D01*
X132616664Y-72316996D01*
X133419269Y-72024872D01*
X133424361Y-72023143D01*
X134238942Y-71766306D01*
X134244102Y-71764802D01*
X135069132Y-71543736D01*
X135074304Y-71542471D01*
X135908225Y-71357594D01*
X135913460Y-71356554D01*
X136754620Y-71208234D01*
X136759886Y-71207424D01*
X137606704Y-71095938D01*
X137612062Y-71095352D01*
X138462901Y-71020913D01*
X138468279Y-71020560D01*
X139038866Y-70995648D01*
X139106700Y-71012390D01*
G37*
%TD.AperFunction*%
%TD*%
M02*
